<?xml version="1.0" encoding="utf-8"?>
<!-- Generator: Adobe Illustrator 19.0.0, SVG Export Plug-In . SVG Version: 6.00 Build 0)  -->
<svg version="1.1" xmlns="http://www.w3.org/2000/svg" xmlns:xlink="http://www.w3.org/1999/xlink" x="0px" y="0px"
	 viewBox="0 0 40 40" enable-background="new 0 0 40 40" xml:space="preserve">
<g id="レイヤー_1" display="none">
	<g id="XMLID_176_" display="inline">
		<path id="XMLID_3_" d="M16.59766,19.11572c-2.37891,8.0957-8.48584,13.17334-12.07227,14.59375L4.3833,33.53174
			c5.14844-4.93555,8.34424-11.50439,9.16064-15.62305H9.46094c-2.16602,0-2.94727,0.0708-3.83496,0.24854l-0.56787-1.31396
			c2.13037,0.17773,4.65137,0.21338,5.04199,0.21338h3.2666l1.20703-1.24268c0.14209-0.14209,0.39062-0.39062,0.6748-0.39062
			c0.35498,0,0.56787,0.10645,0.85205,0.31934l1.70459,1.24268c0.21289,0.14209,0.39062,0.49707,0.39062,0.81689
			C18.1958,18.44141,17.98242,18.54785,16.59766,19.11572z M21.95947,14.07373c0,0.6748,0.0708,10.90088,0.0708,12.854
			c0,1.20703,0,4.8999-0.14209,5.7876c-0.24854,1.49121-1.66846,2.48535-4.29639,2.84033
			c-0.31934-1.81055-1.49121-3.01807-3.01807-4.2251v-0.21338c1.34961,0.14209,3.76367,0.39062,3.97705,0.39062
			c0.49707,0,0.67432-0.0708,0.67432-0.92285v-6.32031c0-1.27832-0.0708-8.27344-0.0708-11.04297v-0.31934h-2.84033
			c-2.20166,0-2.94727,0.0708-3.87061,0.24854l-0.56787-1.31396c2.16602,0.17773,4.68701,0.21289,5.07715,0.21289h1.95312
			l1.24268-1.27783c0.35498-0.35547,0.56836-0.46191,0.85205-0.46191c0.17773,0,0.46191,0.10645,0.71045,0.28418l1.56201,1.27832
			c0.17773,0.14209,0.28418,0.42578,0.28418,0.63916C23.55713,12.9375,23.37988,13.04443,21.95947,14.07373z M21.81738,9.52881
			c-0.85205,0-1.5625-0.63916-2.20166-1.77539c-1.10059-1.98828-3.05322-3.76367-4.11865-4.43799l0.14209-0.31982
			c1.84619,0.24854,7.81152,1.38477,7.81152,4.75781C23.45068,8.92529,22.59863,9.52881,21.81738,9.52881z M33.49902,33.60303
			c-5.00635-2.16602-10.43896-9.76465-11.25537-18.17969l0.46143-0.21338c0.42627,1.38477,0.8877,2.87646,1.95264,4.8291
			c0.95898-0.99414,4.79346-5.43262,5.07764-8.13086l3.47998,2.80469c0.14209,0.10645,0.31934,0.46191,0.31934,0.74561
			c0,0.63916-0.49707,0.63916-1.77539,0.71045c-1.98828,1.49121-6.03613,4.01221-6.78174,4.43848
			c3.12451,5.68115,8.0957,8.91211,12.56934,9.65771v0.21289C34.95508,31.43701,34.56445,32.04053,33.49902,33.60303z"/>
	</g>
</g>
<g id="レイヤー_2">
	<g id="XMLID_1_">
		<path id="XMLID_8_" d="M20.69971,28.19482c2.31738-0.10352,6.60059-0.84814,6.60059-4.67627
			c0-0.62061-0.06201-3.24805-3.6416-4.15869c-2.54492,6.57959-6.33154,9.104-9.16602,9.104
			c-1.46924,0-3.0415-1.01367-3.0415-3.18652c0-1.7793,1.07568-4.80029,5.87598-6.51758c0.10352-1.48975,0.16553-1.98633,0.28955-3
			c-0.51709,0.02051-1.05518,0.0415-2.23438,0.0415c-1.2207,0-1.98633-0.0415-2.77246-0.06201v-1.2002
			c2.60693,0.16553,4.36572,0.12402,5.15186,0.10352c0.16553-1.11768,0.26904-1.77979,0.53809-3.14502l1.24121,0.18604
			c-0.22754,0.91016-0.35156,1.53125-0.62061,2.89648c1.57275-0.08252,4.26221-0.24805,7.8833-1.05518l0.10352,1.2002
			c-3.93164,0.70361-6.24902,0.84814-8.15234,0.97266c-0.02051,0.10352-0.16553,1.11719-0.31055,2.73096
			c1.46924-0.35156,2.87598-0.35156,3.16602-0.35156c3.43457,0,6.89014,1.55176,6.89014,5.44141
			c0,5.19385-5.93848,5.69043-7.34521,5.81445L20.69971,28.19482z M12.54785,25.36035c0,1.63477,1.30322,1.98633,2.00684,1.98633
			c1.51025,0,2.75195-0.86914,3.18652-1.17969c-0.6001-2.66895-0.49658-5.56543-0.47607-6.26904
			C13.20996,21.49121,12.54785,24.22217,12.54785,25.36035z M18.69287,25.36035c1.94482-1.90381,3-4.05566,3.82764-6.18652
			c-0.18604-0.021-0.45508-0.0415-0.97217-0.0415c-1.07617,0-2.11084,0.14502-3.16602,0.41357
			C18.2998,21.44971,18.36182,23.49805,18.69287,25.36035z"/>
	</g>
	<g id="XMLID_2_">
	</g>
	<g id="XMLID_12_">
	</g>
	<g id="XMLID_13_">
	</g>
	<g id="XMLID_14_">
	</g>
	<g id="XMLID_15_">
	</g>
	<g id="XMLID_16_">
	</g>
</g>
</svg>
