<?xml version="1.0" encoding="utf-8"?>
<!-- Generator: Adobe Illustrator 19.0.0, SVG Export Plug-In . SVG Version: 6.00 Build 0)  -->
<svg version="1.1" id="レイヤー_1" xmlns="http://www.w3.org/2000/svg" xmlns:xlink="http://www.w3.org/1999/xlink" x="0px"
	 y="0px" viewBox="-277 400.9 40 40" style="enable-background:new -277 400.9 40 40;" xml:space="preserve">
<style type="text/css">
	.st0{display:none;}
	.st1{display:inline;}
	.st2{fill:#FCFCFC;}
</style>
<g id="レイヤー_1_1_" class="st0">
	<g id="XMLID_176_" class="st1">
		<path id="XMLID_3_" d="M-260.4,420c-2.4,8.1-8.5,13.2-12.1,14.6l-0.1-0.2c5.1-4.9,8.3-11.5,9.2-15.6h-4.1c-2.2,0-2.9,0.1-3.8,0.2
			l-0.6-1.3c2.1,0.2,4.7,0.2,5,0.2h3.3l1.2-1.2c0.1-0.1,0.4-0.4,0.7-0.4c0.4,0,0.6,0.1,0.9,0.3l1.7,1.2c0.2,0.1,0.4,0.5,0.4,0.8
			C-258.8,419.3-259,419.4-260.4,420z M-255,415c0,0.7,0.1,10.9,0.1,12.9c0,1.2,0,4.9-0.1,5.8c-0.2,1.5-1.7,2.5-4.3,2.8
			c-0.3-1.8-1.5-3-3-4.2V432c1.3,0.1,3.8,0.4,4,0.4c0.5,0,0.7-0.1,0.7-0.9v-6.3c0-1.3-0.1-8.3-0.1-11v-0.3h-2.8
			c-2.2,0-2.9,0.1-3.9,0.2l-0.6-1.3c2.2,0.2,4.7,0.2,5.1,0.2h2l1.2-1.3c0.4-0.4,0.6-0.5,0.9-0.5c0.2,0,0.5,0.1,0.7,0.3l1.6,1.3
			c0.2,0.1,0.3,0.4,0.3,0.6C-253.4,413.8-253.6,413.9-255,415z M-255.2,410.4c-0.9,0-1.6-0.6-2.2-1.8c-1.1-2-3.1-3.8-4.1-4.4
			l0.1-0.3c1.8,0.2,7.8,1.4,7.8,4.8C-253.5,409.8-254.4,410.4-255.2,410.4z M-243.5,434.5c-5-2.2-10.4-9.8-11.3-18.2l0.5-0.2
			c0.4,1.4,0.9,2.9,2,4.8c1-1,4.8-5.4,5.1-8.1l3.5,2.8c0.1,0.1,0.3,0.5,0.3,0.7c0,0.6-0.5,0.6-1.8,0.7c-2,1.5-6,4-6.8,4.4
			c3.1,5.7,8.1,8.9,12.6,9.7v0.2C-242,432.3-242.4,432.9-243.5,434.5z"/>
	</g>
</g>
<g id="レイヤー_2">
	<g id="XMLID_1_">
		<path id="XMLID_8_" class="st2" d="M-256.3,429.1c2.3-0.1,6.6-0.8,6.6-4.7c0-0.6-0.1-3.2-3.6-4.2c-2.5,6.6-6.3,9.1-9.2,9.1
			c-1.5,0-3-1-3-3.2c0-1.8,1.1-4.8,5.9-6.5c0.1-1.5,0.2-2,0.3-3c-0.5,0-1.1,0-2.2,0c-1.2,0-2,0-2.8-0.1v-1.2
			c2.6,0.2,4.4,0.1,5.2,0.1c0.2-1.1,0.3-1.8,0.5-3.1l1.2,0.2c-0.2,0.9-0.4,1.5-0.6,2.9c1.6-0.1,4.3-0.2,7.9-1.1l0.1,1.2
			c-3.9,0.7-6.2,0.8-8.2,1c0,0.1-0.2,1.1-0.3,2.7c1.5-0.4,2.9-0.4,3.2-0.4c3.4,0,6.9,1.6,6.9,5.4c0,5.2-5.9,5.7-7.3,5.8
			L-256.3,429.1z M-264.5,426.3c0,1.6,1.3,2,2,2c1.5,0,2.8-0.9,3.2-1.2c-0.6-2.7-0.5-5.6-0.5-6.3
			C-263.8,422.4-264.5,425.1-264.5,426.3z M-258.3,426.3c1.9-1.9,3-4.1,3.8-6.2c-0.2,0-0.5,0-1,0c-1.1,0-2.1,0.1-3.2,0.4
			C-258.7,422.3-258.6,424.4-258.3,426.3z"/>
	</g>
	<g id="XMLID_2_">
	</g>
	<g id="XMLID_12_">
	</g>
	<g id="XMLID_13_">
	</g>
	<g id="XMLID_14_">
	</g>
	<g id="XMLID_15_">
	</g>
	<g id="XMLID_16_">
	</g>
</g>
</svg>
