<?xml version="1.0" encoding="utf-8"?>
<!-- Generator: Adobe Illustrator 17.0.0, SVG Export Plug-In . SVG Version: 6.00 Build 0)  -->
<!DOCTYPE svg PUBLIC "-//W3C//DTD SVG 1.1//EN" "http://www.w3.org/Graphics/SVG/1.1/DTD/svg11.dtd">
<svg version="1.1" id="レイヤー_1" xmlns="http://www.w3.org/2000/svg" xmlns:xlink="http://www.w3.org/1999/xlink" x="0px"
	 y="0px" width="180px" height="40px" viewBox="0 0 180 40" enable-background="new 0 0 180 40" xml:space="preserve">
<g>
	<defs>
		<rect id="SVGID_1_" width="180" height="40"/>
	</defs>
	<clipPath id="SVGID_2_">
		<use xlink:href="#SVGID_1_"  overflow="visible"/>
	</clipPath>
	<path clip-path="url(#SVGID_2_)" fill="#FFFFFF" d="M25.858,29C24.724,29,23,28.218,23,27.09V23h20v-9H23V9h20V0H0v9h11v5H0v9
		h10.825l0.004,4.815c0,6.353,4.738,11.595,11.112,11.595L43,39.483V29H25.858z"/>
	<rect x="46" clip-path="url(#SVGID_2_)" fill="#FFFFFF" width="12" height="23"/>
	<path clip-path="url(#SVGID_2_)" fill="#FFFFFF" d="M130,0v7h8.053l0.012-7h41.618l0.015,28.236
		c0,6.346-4.754,11.402-11.132,11.402L154,39.517V29h10.662c1.123,0,2.049-0.833,2.049-1.958L166.703,9H150v14h-11.935l-0.012-6
		h-8.006l0.003,11.345c0,6.346-5.209,11.347-11.58,11.347L105,39.517V29h10.022c1.131,0,2.978-0.751,2.978-1.876V17h-12.944
		l-0.003,6H94v-6H84v11.018c0,6.346-4.616,11.511-10.994,11.511L58,39.517V29h12.164c1.128,0,2.039-0.617,2.039-1.742L72.215,0H84v7
		h10V0h11v7h13V0H130z"/>
</g>
</svg>
